<svg version="1.1" id="Layer_1" xmlns="http://www.w3.org/2000/svg" xmlns:xlink="http://www.w3.org/1999/xlink" x="0px" y="0px"
	 width="100%" viewBox="0 0 224 176" enable-background="new 0 0 224 176" xml:space="preserve">
<path fill="#000000" opacity="1.000000" stroke="none" 
	d="
M93.838638,130.160950 
	C93.594269,129.696793 93.494217,129.558685 93.434486,129.404907 
	C92.707397,127.533173 89.517776,126.830231 90.819374,124.025841 
	C91.187347,123.233040 92.003029,122.845268 92.915657,123.032265 
	C95.828178,123.629044 94.556183,126.749039 96.044540,128.294662 
	C97.740761,128.266357 96.896866,125.809303 98.649185,125.707932 
	C100.691078,126.400917 100.458824,129.016678 102.018921,130.231857 
	C104.606857,125.676392 105.201767,118.814682 103.512329,114.467598 
	C101.619492,109.597160 101.130142,104.610573 102.387207,99.202698 
	C105.769012,99.882866 105.665176,102.871544 106.920570,104.780708 
	C109.538887,102.482338 107.582909,97.935432 111.059288,95.974205 
	C114.267365,98.053154 110.712364,100.257706 111.432709,102.280777 
	C116.488518,99.775421 118.833366,95.095978 118.063377,89.815498 
	C117.597679,86.621788 116.841446,83.248299 119.142662,80.295326 
	C121.458282,80.761177 121.636726,82.853149 122.644615,84.381592 
	C124.166245,82.972839 123.566093,81.242195 123.323578,79.749062 
	C123.048462,78.055267 122.319824,76.309273 124.520210,75.561478 
	C126.677383,74.828362 126.937492,77.089462 127.855721,78.316109 
	C129.824310,75.967140 129.909836,73.747673 128.314301,71.341614 
	C127.555977,70.198036 125.952637,68.624504 128.025589,67.600998 
	C129.965912,66.642967 130.345779,68.818649 131.002563,70.059761 
	C131.468292,70.939857 131.823807,71.878296 132.427765,73.239883 
	C133.141510,71.801598 132.665054,70.146553 133.900269,69.303871 
	C135.416351,68.269592 137.713638,68.547745 137.149261,70.139282 
	C136.075363,73.167641 137.614349,75.869324 137.125259,78.530891 
	C136.562500,81.593292 133.240555,82.325493 130.861313,83.799889 
	C125.523003,87.107964 124.271797,93.454712 120.466850,97.966591 
	C123.953789,95.682030 127.242821,93.241760 129.627197,89.806229 
	C130.562546,88.458542 131.446594,86.341980 133.338303,88.094994 
	C134.952576,89.590897 133.045364,90.682304 131.974777,91.620483 
	C129.850189,93.482307 127.682426,95.294868 126.252983,96.513542 
	C126.157936,99.656303 128.960983,99.142693 128.820343,101.435234 
	C125.877205,104.097359 122.014648,105.489960 118.045326,106.582199 
	C111.156044,108.477898 109.234688,110.727051 108.378792,118.770584 
	C111.257851,117.001831 114.844597,117.137146 116.102722,113.302879 
	C116.550911,111.936974 117.963242,111.266129 119.333862,112.400948 
	C120.480942,113.350670 120.094986,114.465317 119.161880,115.415199 
	C114.190941,120.475479 112.438263,127.629189 107.723000,132.892105 
	C105.368729,135.519821 106.049881,138.930786 106.721054,141.990402 
	C107.826424,147.029297 109.314430,151.971848 111.806908,156.562180 
	C112.460098,157.765137 113.823143,158.920761 112.063118,162.193497 
	C106.833496,150.394348 101.276802,139.899185 93.838638,130.160950 
z"/>
<path fill="#000000" opacity="1.000000" stroke="none" 
	d="
M165.285080,140.428299 
	C154.199783,141.845337 143.589813,141.975235 133.177933,139.084991 
	C123.474457,136.391403 119.010139,124.675430 124.128761,116.052864 
	C125.284996,114.105125 126.908485,114.533417 128.497818,114.886429 
	C130.119965,115.246727 130.816284,116.155800 130.734604,118.103462 
	C130.175217,131.442657 132.167206,133.575836 145.634369,133.725037 
	C154.100388,133.818802 162.574799,134.120499 171.017273,132.773865 
	C181.915146,131.035568 184.751175,128.115524 180.939285,117.617516 
	C180.118240,115.356339 177.142685,111.997337 182.340225,110.416573 
	C184.532028,109.749962 185.793015,110.007057 186.634415,112.194351 
	C188.563660,117.209618 190.021545,122.329430 189.269180,127.747070 
	C188.611313,132.484390 185.445724,135.416718 181.268890,137.196228 
	C176.333405,139.298981 171.098557,140.215607 165.285080,140.428299 
z"/>
<path fill="#000000" opacity="1.000000" stroke="none" 
	d="
M77.520889,76.292969 
	C75.933762,77.794510 74.648338,79.095551 73.377274,80.410477 
	C71.898773,81.940002 70.396698,81.432770 68.863655,80.507782 
	C66.884491,79.313614 67.443115,77.846527 68.278473,76.228302 
	C71.523682,69.941811 79.218102,66.495010 85.532028,68.553398 
	C91.682640,70.558548 96.226906,79.154945 95.064461,86.585938 
	C93.933067,93.818420 92.929550,94.532265 85.685081,93.276871 
	C83.886597,92.965210 82.086357,92.426003 80.284279,92.414742 
	C73.326416,92.371269 69.366188,97.164848 70.494278,104.298203 
	C71.272148,109.216919 72.275658,114.101021 73.234787,118.989525 
	C73.721558,121.470490 73.939095,123.613319 70.595428,124.270378 
	C67.588943,124.861168 67.017197,123.214035 66.398804,120.812653 
	C64.941681,115.154190 64.050873,109.425980 63.504623,103.626671 
	C62.401756,91.918037 68.589279,85.158089 80.288490,85.206566 
	C82.782951,85.216904 85.916855,87.117523 87.562599,84.139030 
	C88.738441,82.010971 87.384399,79.566490 85.885376,77.697983 
	C83.695435,74.968262 80.910477,74.640442 77.520889,76.292969 
z"/>
<path fill="#000000" opacity="1.000000" stroke="none" 
	d="
M157.112778,105.214432 
	C159.043839,102.382309 161.272247,101.940163 163.688705,103.724350 
	C165.380402,104.973404 165.645264,106.731010 164.482346,108.574257 
	C163.192474,110.618690 161.249741,110.918953 159.257294,110.074135 
	C157.410980,109.291283 156.581451,107.669243 157.112778,105.214432 
z"/>
<path fill="#000000" opacity="1.000000" stroke="none" 
	d="
M155.038147,108.168076 
	C152.559494,111.084007 150.066025,111.539055 147.814316,108.580910 
	C146.360077,106.670418 146.967697,104.565796 148.932373,103.413025 
	C151.520706,101.894318 153.784866,102.708435 155.111755,105.426842 
	C155.435104,106.089287 155.179871,107.034164 155.038147,108.168076 
z"/>
</svg>