<svg version="1.1" id="Layer_1" xmlns="http://www.w3.org/2000/svg" xmlns:xlink="http://www.w3.org/1999/xlink" x="0px" y="0px"
	 width="100%" viewBox="0 0 224 176" enable-background="new 0 0 224 176" xml:space="preserve">
<path fill="#000000" opacity="1.000000" stroke="none" 
	d="
M181.183289,118.307144 
	C183.973480,127.833900 181.205643,134.047424 172.616882,137.628815 
	C169.886261,138.767441 166.921524,139.840958 164.017685,139.980133 
	C152.747665,140.520340 141.445786,141.032501 130.302460,139.065582 
	C129.130341,133.303268 129.494141,132.835709 135.007233,132.729630 
	C141.109070,132.612228 142.557877,131.103485 142.738007,125.035706 
	C143.064178,114.049095 141.998978,103.108627 141.764618,92.141975 
	C141.712814,89.718025 141.164032,86.872330 145.147339,86.880539 
	C148.727402,86.887917 149.011948,89.348106 149.163193,91.958412 
	C149.680267,100.882393 148.734802,109.890953 150.699753,119.477470 
	C153.465866,117.713966 155.846558,116.049049 158.361069,114.619598 
	C167.273926,109.552826 175.538208,110.796600 181.183289,118.307144 
M160.033310,133.492752 
	C163.569000,132.625870 167.360184,132.835495 170.661362,130.982773 
	C173.732346,129.259247 176.519501,127.050430 175.152496,123.140923 
	C173.818512,119.325920 170.638809,118.131340 166.648605,119.017288 
	C158.801117,120.759682 154.023987,126.384102 148.751068,132.347000 
	C152.577927,133.999207 155.907166,133.512451 160.033310,133.492752 
z"/>
<path fill="#000000" opacity="1.000000" stroke="none" 
	d="
M110.763077,96.205460 
	C114.375099,98.042648 110.599930,100.258392 111.412857,102.261581 
	C116.449707,100.032967 119.044205,95.171638 118.188164,89.953156 
	C117.657402,86.717537 116.936272,83.376259 119.108093,80.292282 
	C121.309486,80.810013 121.724121,82.743507 122.681740,84.722466 
	C123.944855,82.740868 123.708206,80.980377 123.289246,79.267479 
	C122.952118,77.889114 122.665428,76.567688 124.179634,75.801590 
	C124.674362,75.551300 125.563637,75.587204 126.035164,75.877579 
	C127.431938,76.737755 127.224068,78.079185 126.804550,79.431328 
	C126.629395,79.995842 126.102097,80.599777 126.773849,81.201225 
	C130.266129,76.957436 129.781784,72.518944 126.568596,67.818893 
	C131.711212,67.154869 130.265549,71.892738 132.575562,73.090958 
	C132.866058,72.065842 133.037186,70.939926 133.502640,69.952797 
	C134.071274,68.746841 135.188019,68.276939 136.426773,68.897423 
	C137.487732,69.428856 137.748398,70.619598 137.115250,71.454453 
	C135.589905,73.465729 136.014526,74.975067 137.138596,77.161598 
	C138.145203,79.119652 136.121735,81.168480 134.288605,81.815376 
	C126.491486,84.566864 124.895752,92.442535 120.458961,97.989647 
	C123.980263,95.550903 127.540062,93.196487 129.874664,89.490601 
	C130.705170,88.172279 131.664093,86.591179 133.310501,88.111397 
	C134.723816,89.416367 133.257248,90.471535 132.273224,91.329453 
	C130.023895,93.290504 127.739883,95.211761 126.229568,96.500824 
	C126.169388,99.691605 129.017029,99.154869 128.772705,101.487808 
	C126.220200,103.821793 122.797104,105.761307 119.371201,106.090218 
	C111.027130,106.891342 109.041100,112.553543 107.505585,120.145576 
	C110.647400,117.136543 114.955414,117.148148 116.376251,112.961990 
	C116.777168,111.780792 118.187225,111.444542 119.299393,112.422050 
	C120.438240,113.423019 120.030670,114.492279 119.100311,115.433434 
	C114.105515,120.486176 112.270912,127.587639 107.682335,132.942993 
	C105.283478,135.742706 106.162598,139.273575 106.818504,142.539581 
	C108.061256,148.727753 110.498848,154.510513 113.068901,160.400681 
	C109.851868,159.472565 108.489914,156.662308 107.938965,154.143646 
	C105.657166,143.712372 97.074951,137.151978 92.481071,128.174881 
	C91.770493,126.786331 89.803970,125.957115 90.890022,123.969276 
	C91.303925,123.211700 92.117172,122.828087 93.030365,123.077782 
	C94.839325,123.572411 94.983429,125.107170 95.235870,126.613693 
	C95.338737,127.227608 95.707100,127.797043 95.944534,128.362564 
	C97.757629,128.195358 96.877151,125.706192 98.877380,125.783493 
	C100.646759,126.576958 100.486748,129.146255 102.909950,130.895004 
	C103.086273,124.869125 106.194817,119.814507 103.426216,113.817497 
	C101.382256,109.390129 100.925713,104.339691 102.518593,99.160088 
	C105.702362,100.083740 105.859314,102.887474 106.930679,105.081581 
	C109.111176,102.337738 108.091782,98.658928 110.763077,96.205460 
z"/>
<path fill="#000000" opacity="1.000000" stroke="none" 
	d="
M94.084198,78.359093 
	C94.483650,80.049713 94.862473,81.334419 95.057846,82.646454 
	C96.336075,91.230370 92.884880,94.688370 84.655907,93.102798 
	C84.003548,92.977104 83.374100,92.728210 82.720467,92.614067 
	C74.354065,91.153122 69.122612,96.379021 70.574898,104.802078 
	C71.392296,109.542831 72.299271,114.268822 73.223442,118.990204 
	C73.708763,121.469597 73.920067,123.609932 70.583504,124.266853 
	C67.564941,124.861168 67.015015,123.183937 66.405212,120.794518 
	C64.962120,115.139969 64.007759,109.426979 63.529781,103.623672 
	C62.525719,91.432869 69.195473,84.586624 81.294243,85.302010 
	C83.479797,85.431236 86.416290,86.942047 87.557190,84.164841 
	C88.719040,81.336662 87.136177,78.579597 84.863525,76.653870 
	C82.583809,74.722160 79.895271,74.698341 77.473038,76.382652 
	C75.997948,77.408363 74.796814,78.857277 73.571770,80.206154 
	C71.956337,81.984886 70.335815,81.482552 68.683327,80.371048 
	C66.726997,79.055183 67.539108,77.526627 68.428650,76.038933 
	C71.575424,70.776192 76.170898,67.654732 82.348526,67.922264 
	C88.629021,68.194244 92.167313,72.220711 94.084198,78.359093 
z"/>
</svg>